HIERARCHY
ROOT Hips
{
	OFFSET 0.000000 100.481300 0.000000
	CHANNELS 6 Xposition Yposition Zposition Xrotation Yrotation Zrotation
	JOINT Spine
	{
		OFFSET -0.279200 12.230698 -2.892100
		CHANNELS 3 Xrotation Yrotation Zrotation
		JOINT Spine1
		{
			OFFSET -0.325700 14.269203 -3.374200
			CHANNELS 3 Xrotation Yrotation Zrotation
			JOINT Spine2
			{
				OFFSET -0.372300 16.307602 -0.352600
				CHANNELS 3 Xrotation Yrotation Zrotation
				JOINT Neck
				{
					OFFSET -0.418800 17.814194 8.416900
					CHANNELS 3 Xrotation Yrotation Zrotation
					JOINT Head
					{
						OFFSET 0.000000 7.031097 3.806800
						CHANNELS 3 Xrotation Yrotation Zrotation
						JOINT HeadTop_End
						{
							OFFSET 0.000000 24.646606 12.978600
							CHANNELS 3 Xrotation Yrotation Zrotation
							End Site
							{
								OFFSET 0.000000 27.854965 0.000000
							}
						}
					}
				}
				JOINT LeftShoulder
				{
					OFFSET 16.952999 14.495407 -7.737500
					CHANNELS 3 Xrotation Yrotation Zrotation
					JOINT LeftArm
					{
						OFFSET 9.308998 -2.777710 0.208600
						CHANNELS 3 Xrotation Yrotation Zrotation
						JOINT LeftForeArm
						{
							OFFSET 29.972298 0.000000 0.000000
							CHANNELS 3 Xrotation Yrotation Zrotation
							JOINT LeftHand
							{
								OFFSET 26.026505 0.000000 0.000000
								CHANNELS 3 Xrotation Yrotation Zrotation
								JOINT LeftHandThumb1
								{
									OFFSET 12.240501 -7.147949 9.207150
									CHANNELS 3 Xrotation Yrotation Zrotation
									JOINT LeftHandThumb2
									{
										OFFSET 4.138618 -2.389435 2.389433
										CHANNELS 3 Xrotation Yrotation Zrotation
										JOINT LeftHandThumb3
										{
											OFFSET 2.726913 -1.574387 1.574386
											CHANNELS 3 Xrotation Yrotation Zrotation
											JOINT LeftHandThumb4
											{
												OFFSET 3.941010 -2.275345 2.275342
												CHANNELS 3 Xrotation Yrotation Zrotation
												End Site
												{
													OFFSET -0.005798 5.087799 0.009903
												}
											}
										}
									}
								}
								JOINT LeftHandIndex1
								{
									OFFSET 24.424698 -1.985611 5.953459
									CHANNELS 3 Xrotation Yrotation Zrotation
									JOINT LeftHandIndex2
									{
										OFFSET 6.426697 0.000000 0.000000
										CHANNELS 3 Xrotation Yrotation Zrotation
										JOINT LeftHandIndex3
										{
											OFFSET 5.337898 0.000000 0.000000
											CHANNELS 3 Xrotation Yrotation Zrotation
											JOINT LeftHandIndex4
											{
												OFFSET 4.409401 0.000000 0.000000
												CHANNELS 3 Xrotation Yrotation Zrotation
												End Site
												{
													OFFSET 0.000000 4.409363 0.014373
												}
											}
										}
									}
								}
								JOINT LeftHandMiddle1
								{
									OFFSET 23.810104 0.000000 0.000000
									CHANNELS 3 Xrotation Yrotation Zrotation
									JOINT LeftHandMiddle2
									{
										OFFSET 7.176498 0.000000 0.000000
										CHANNELS 3 Xrotation Yrotation Zrotation
										JOINT LeftHandMiddle3
										{
											OFFSET 6.774902 0.000000 0.000000
											CHANNELS 3 Xrotation Yrotation Zrotation
											JOINT LeftHandMiddle4
											{
												OFFSET 5.403328 0.000000 0.000000
												CHANNELS 3 Xrotation Yrotation Zrotation
												End Site
												{
													OFFSET -0.027702 5.403244 0.017414
												}
											}
										}
									}
								}
								JOINT LeftHandRing1
								{
									OFFSET 22.908401 -0.839279 -6.020567
									CHANNELS 3 Xrotation Yrotation Zrotation
									JOINT LeftHandRing2
									{
										OFFSET 6.337502 0.000000 0.000000
										CHANNELS 3 Xrotation Yrotation Zrotation
										JOINT LeftHandRing3
										{
											OFFSET 5.779297 0.000000 0.000000
											CHANNELS 3 Xrotation Yrotation Zrotation
											JOINT LeftHandRing4
											{
												OFFSET 4.965698 0.000000 0.000000
												CHANNELS 3 Xrotation Yrotation Zrotation
												End Site
												{
													OFFSET 0.000000 4.965668 0.016186
												}
											}
										}
									}
								}
								JOINT LeftHandPinky1
								{
									OFFSET 20.037003 -1.530319 -10.950146
									CHANNELS 3 Xrotation Yrotation Zrotation
									JOINT LeftHandPinky2
									{
										OFFSET 5.254700 0.000000 0.000000
										CHANNELS 3 Xrotation Yrotation Zrotation
										JOINT LeftHandPinky3
										{
											OFFSET 4.810204 0.000000 0.000000
											CHANNELS 3 Xrotation Yrotation Zrotation
											JOINT LeftHandPinky4
											{
												OFFSET 3.647202 0.000000 0.000000
												CHANNELS 3 Xrotation Yrotation Zrotation
												End Site
												{
													OFFSET 0.000000 3.647186 0.011889
												}
											}
										}
									}
								}
							}
						}
					}
				}
				JOINT RightShoulder
				{
					OFFSET -15.141001 14.495407 -7.737500
					CHANNELS 3 Xrotation Yrotation Zrotation
					JOINT RightArm
					{
						OFFSET -9.308998 -2.777710 0.208500
						CHANNELS 3 Xrotation Yrotation Zrotation
						JOINT RightForeArm
						{
							OFFSET -29.972300 0.000000 0.000000
							CHANNELS 3 Xrotation Yrotation Zrotation
							JOINT RightHand
							{
								OFFSET -26.026505 0.000000 0.000000
								CHANNELS 3 Xrotation Yrotation Zrotation
								JOINT RightHandThumb1
								{
									OFFSET -12.240601 -7.148026 9.207092
									CHANNELS 3 Xrotation Yrotation Zrotation
									JOINT RightHandThumb2
									{
										OFFSET -4.138618 -2.389435 2.389433
										CHANNELS 3 Xrotation Yrotation Zrotation
										JOINT RightHandThumb3
										{
											OFFSET -2.726974 -1.574417 1.574421
											CHANNELS 3 Xrotation Yrotation Zrotation
											JOINT RightHandThumb4
											{
												OFFSET -3.941010 -2.275345 2.275343
												CHANNELS 3 Xrotation Yrotation Zrotation
												End Site
												{
													OFFSET 0.005814 5.087799 0.009927
												}
											}
										}
									}
								}
								JOINT RightHandIndex1
								{
									OFFSET -24.424698 -1.985657 5.953444
									CHANNELS 3 Xrotation Yrotation Zrotation
									JOINT RightHandIndex2
									{
										OFFSET -6.426697 0.000000 0.000000
										CHANNELS 3 Xrotation Yrotation Zrotation
										JOINT RightHandIndex3
										{
											OFFSET -5.337898 0.000000 0.000000
											CHANNELS 3 Xrotation Yrotation Zrotation
											JOINT RightHandIndex4
											{
												OFFSET -4.409401 0.000000 0.000000
												CHANNELS 3 Xrotation Yrotation Zrotation
												End Site
												{
													OFFSET 0.000000 4.409363 0.014408
												}
											}
										}
									}
								}
								JOINT RightHandMiddle1
								{
									OFFSET -23.810097 0.000000 0.000000
									CHANNELS 3 Xrotation Yrotation Zrotation
									JOINT RightHandMiddle2
									{
										OFFSET -7.176498 0.000000 0.000000
										CHANNELS 3 Xrotation Yrotation Zrotation
										JOINT RightHandMiddle3
										{
											OFFSET -6.774902 0.000000 0.000000
											CHANNELS 3 Xrotation Yrotation Zrotation
											JOINT RightHandMiddle4
											{
												OFFSET -5.403328 0.000000 0.000000
												CHANNELS 3 Xrotation Yrotation Zrotation
												End Site
												{
													OFFSET 0.027702 5.403244 0.017457
												}
											}
										}
									}
								}
								JOINT RightHandRing1
								{
									OFFSET -22.908302 -0.839325 -6.020576
									CHANNELS 3 Xrotation Yrotation Zrotation
									JOINT RightHandRing2
									{
										OFFSET -6.337502 0.000000 0.000000
										CHANNELS 3 Xrotation Yrotation Zrotation
										JOINT RightHandRing3
										{
											OFFSET -5.779297 0.000000 0.000000
											CHANNELS 3 Xrotation Yrotation Zrotation
											JOINT RightHandRing4
											{
												OFFSET -4.965698 0.000000 0.000000
												CHANNELS 3 Xrotation Yrotation Zrotation
												End Site
												{
													OFFSET 0.000000 4.965668 0.016226
												}
											}
										}
									}
								}
								JOINT RightHandPinky1
								{
									OFFSET -20.037003 -1.530334 -10.950259
									CHANNELS 3 Xrotation Yrotation Zrotation
									JOINT RightHandPinky2
									{
										OFFSET -5.254700 0.000000 0.000000
										CHANNELS 3 Xrotation Yrotation Zrotation
										JOINT RightHandPinky3
										{
											OFFSET -4.810204 0.000000 0.000000
											CHANNELS 3 Xrotation Yrotation Zrotation
											JOINT RightHandPinky4
											{
												OFFSET -3.647202 0.000000 0.000000
												CHANNELS 3 Xrotation Yrotation Zrotation
												End Site
												{
													OFFSET 0.000000 3.647186 0.011917
												}
											}
										}
									}
								}
							}
						}
					}
				}
			}
		}
	}
	JOINT LeftUpLeg
	{
		OFFSET 15.427100 -6.655098 0.678600
		CHANNELS 3 Xrotation Yrotation Zrotation
		JOINT LeftLeg
		{
			OFFSET 4.081073 -39.591068 13.024000
			CHANNELS 3 Xrotation Yrotation Zrotation
			JOINT LeftFoot
			{
				OFFSET -4.081074 -37.707932 -15.979700
				CHANNELS 3 Xrotation Yrotation Zrotation
				JOINT LeftToeBase
				{
					OFFSET 5.346399 -15.068900 20.645000
					CHANNELS 3 Xrotation Yrotation Zrotation
					JOINT LeftToe_End
					{
						OFFSET 2.754700 0.931300 11.300900
						CHANNELS 3 Xrotation Yrotation Zrotation
						End Site
						{
							OFFSET 0.000000 11.669021 0.000000
						}
					}
				}
			}
		}
	}
	JOINT RightUpLeg
	{
		OFFSET -15.569500 -6.655098 0.678600
		CHANNELS 3 Xrotation Yrotation Zrotation
		JOINT RightLeg
		{
			OFFSET -4.081825 -39.591045 13.023800
			CHANNELS 3 Xrotation Yrotation Zrotation
			JOINT RightFoot
			{
				OFFSET 4.081824 -37.707954 -15.979600
				CHANNELS 3 Xrotation Yrotation Zrotation
				JOINT RightToeBase
				{
					OFFSET -5.346400 -15.068900 20.645000
					CHANNELS 3 Xrotation Yrotation Zrotation
					JOINT RightToe_End
					{
						OFFSET -2.754700 0.931300 11.300900
						CHANNELS 3 Xrotation Yrotation Zrotation
						End Site
						{
							OFFSET 0.000000 11.669021 0.000000
						}
					}
				}
			}
		}
	}
}
MOTION
Frames: 6
Frame Time: 0.033333
2.665345 70.841682 -5.501750 6.334577 -16.066722 -2.472207 8.249248 -2.238597 4.603300 2.826534 -0.712856 0.189683 2.823257 -0.722592 0.186048 6.846861 3.042023 1.804097 0.647753 14.058579 10.755732 -0.000000 0.000000 0.000002 1.248528 -14.389788 6.461326 -81.337772 -24.322859 -62.894281 -0.000013 -35.006389 -0.000016 -128.692935 9.807988 15.775196 4.709227 9.560362 3.111992 19.473187 -1.474905 7.636913 -4.536181 -9.613110 1.492972 0.000000 -0.000001 0.000000 -0.212823 3.933706 -36.747135 2.942134 5.078920 -60.144604 0.513679 2.400821 -24.150499 0.000001 0.000001 -0.000001 0.405916 5.507054 -52.453151 3.387148 5.308619 -65.057463 0.282026 1.797472 -17.832384 -0.000000 0.000000 0.000000 -0.074386 5.736793 -61.061427 4.055049 5.569516 -72.094901 0.582659 2.548961 -25.748001 0.000001 -0.000000 -0.000002 -6.565580 4.545124 -72.425236 3.299628 5.267219 -64.107794 0.175347 1.424004 -14.038889 0.000001 -0.000001 -0.000000 0.636166 4.959162 5.772141 -50.762106 36.652363 83.124577 -0.000026 106.499588 0.000022 -25.495023 -36.171992 -26.083985 8.377116 -4.904134 11.022014 21.620216 -18.183895 -18.379240 -0.702891 -49.821196 -32.535148 0.000003 0.000003 0.000002 -0.920053 1.683588 12.434974 0.748113 -2.533469 32.898289 0.615643 -2.316066 29.767826 -0.000000 0.000000 -0.000001 3.413038 -7.186255 51.650239 6.296800 -4.359589 110.634680 0.248708 -1.503069 18.790265 0.000000 -0.000000 -0.000000 -3.349060 -2.600426 57.010575 5.440873 -4.590914 99.698181 1.689413 -3.590717 50.382235 0.000000 0.000000 -0.000001 -3.996450 -3.303921 64.593857 4.058842 -4.618641 82.610523 2.315538 -4.026783 59.787200 -0.000000 -0.000001 -0.000001 -38.246850 9.222711 7.145201 92.280616 3.648185 -2.589873 -18.468423 5.153636 7.706316 -8.219322 1.307654 -10.533653 -0.000000 0.000000 -0.000000 -29.139469 2.716966 12.846949 65.107487 -7.876981 -5.694342 -41.711064 -18.216948 2.873229 -6.583901 -0.000012 -0.000002 0.000000 -0.000001 -0.000000 
2.437001 73.342117 2.309669 7.852589 -16.465255 -1.440229 7.810001 -1.912927 3.913108 2.618022 -0.716696 0.168232 2.615304 -0.725736 0.165495 7.077735 3.331873 1.293986 0.095659 14.906265 10.967650 -0.000002 -0.000000 0.000001 1.227835 -18.044861 7.341749 -79.455051 -22.387219 -58.737735 -0.000032 -35.385936 -0.000010 -128.482866 10.276731 16.161059 4.443819 9.151897 3.007908 19.287899 -1.776700 7.765436 -4.514107 -9.524874 1.482203 0.000000 0.000002 -0.000002 -0.241481 3.889577 -36.668772 2.933252 5.073824 -60.044268 0.509850 2.392279 -24.058964 -0.000004 -0.000000 0.000000 0.358781 5.482226 -52.657873 3.382269 5.306370 -65.004857 0.280484 1.792681 -17.783443 -0.000000 -0.000001 -0.000002 -0.076417 5.746551 -61.212627 4.058691 5.570686 -72.132631 0.584352 2.552455 -25.785923 -0.000001 0.000002 -0.000003 -6.545179 4.596742 -72.641575 3.304449 5.269553 -64.160427 0.176644 1.429204 -14.090998 0.000000 0.000002 -0.000001 0.678264 5.676430 4.788889 -51.903250 35.836063 83.663540 0.000027 104.806111 -0.000019 -25.422464 -34.998842 -26.009065 8.368929 -4.898015 10.995848 21.529262 -18.046447 -18.400525 -0.672244 -49.895973 -32.535732 -0.000000 0.000000 0.000005 -1.014486 2.008034 12.700669 0.748679 -2.534305 32.910737 0.615643 -2.316066 29.767826 0.000000 0.000000 -0.000000 3.119555 -6.945055 51.940751 6.284917 -4.364037 110.478242 0.244758 -1.491330 18.638207 0.000000 -0.000000 0.000000 -3.306988 -2.615169 56.917056 5.462317 -4.587202 99.966294 1.689413 -3.590717 50.382238 -0.000000 0.000001 0.000001 -3.888946 -3.354228 64.585504 4.066997 -4.619715 82.711685 2.322419 -4.030764 59.885063 0.000000 -0.000001 0.000002 -47.805898 9.210112 8.039982 85.771535 3.019359 -2.283640 -19.298370 3.998446 5.354408 -1.583760 0.102778 -3.713931 -0.000000 -0.000001 0.000000 -20.595739 3.493931 10.566240 59.178706 -6.952488 -6.748683 -43.754322 -19.163317 3.470650 -8.088967 -0.000010 0.000000 -0.000000 0.000001 0.000000 
2.133476 77.126213 10.219532 9.582825 -16.517108 -0.448239 7.356636 -1.983637 3.141624 2.457267 -0.803700 0.175892 2.455299 -0.812764 0.173561 6.838194 3.516028 1.208947 -0.045140 15.907316 10.917116 -0.000000 -0.000000 -0.000001 2.073935 -25.679346 10.945457 -75.500781 -16.325064 -50.219458 -0.000046 -37.873597 -0.000029 -128.527085 10.242697 17.001589 4.327034 8.974529 2.968527 18.897549 -2.421417 8.036141 -4.431270 -9.197511 1.442225 0.000002 -0.000001 0.000000 -0.260736 3.844709 -36.408494 2.919773 5.066064 -59.891736 0.503707 2.378466 -23.911183 0.000001 -0.000002 0.000002 0.300253 5.446430 -52.811699 3.369785 5.300547 -64.869585 0.276420 1.779975 -17.653218 0.000003 0.000003 0.000002 -0.101817 5.742298 -61.345433 4.047440 5.567072 -72.016674 0.579305 2.541987 -25.672270 0.000001 -0.000000 0.000002 -6.535957 4.607719 -72.680275 3.304366 5.269506 -64.159573 0.176621 1.429111 -14.090097 0.000002 0.000000 -0.000004 0.709937 6.066131 4.124490 -54.333571 34.937862 84.573137 0.000378 101.065674 -0.000375 -25.121272 -32.842408 -24.299807 8.367820 -4.909080 10.889612 21.467858 -17.953468 -18.414847 -0.693004 -49.845273 -32.535329 0.000000 0.000001 0.000003 -1.062711 2.184189 12.801491 0.748997 -2.534819 32.918073 0.615642 -2.316065 29.767826 -0.000000 -0.000000 -0.000000 2.926959 -6.795868 51.919352 6.276841 -4.367039 110.372510 0.242030 -1.483292 18.533903 -0.000000 0.000000 -0.000000 -3.271908 -2.614356 56.741629 5.466884 -4.586391 100.023414 1.689413 -3.590717 50.382238 -0.000000 0.000000 -0.000002 -3.861059 -3.369861 64.601644 4.073856 -4.620580 82.796858 2.328338 -4.034194 59.969334 0.000000 -0.000000 0.000002 -54.049937 8.306379 7.663917 74.568508 3.194196 -1.549680 -19.615366 1.475891 1.957565 1.889061 -0.000001 0.000001 -0.000001 -0.000000 -0.000000 -11.726229 3.518955 7.733582 49.673073 -6.026103 -7.939506 -41.305893 -19.130491 5.953273 -10.519463 -0.000015 -0.000003 0.000001 0.000001 0.000000 
1.801083 81.847534 17.987875 11.423253 -16.116663 0.539709 6.790653 -2.126591 2.271485 2.160639 -0.858383 0.090916 2.159271 -0.868821 0.089595 6.524978 3.452517 1.800147 0.036064 16.543003 10.626726 0.000001 0.000000 0.000000 4.021310 -32.033994 15.445665 -73.910686 -11.356176 -44.083489 0.000010 -37.831612 -0.000000 -128.316018 10.737559 16.903823 4.283874 8.907222 2.932883 18.339756 -3.364342 8.422895 -4.336388 -8.820573 1.395351 0.000002 0.000001 -0.000000 -0.249199 3.826838 -35.944437 2.904402 5.057160 -59.717403 0.496232 2.361547 -23.730615 -0.000003 -0.000000 -0.000002 0.272091 5.429839 -52.892971 3.354389 5.293327 -64.702983 0.271383 1.764072 -17.490031 0.000000 0.000001 -0.000002 -0.079360 5.768257 -61.534772 4.028301 5.560841 -71.819145 0.570613 2.523870 -25.475684 -0.000001 0.000001 0.000002 -6.534285 4.627501 -72.772852 3.296903 5.265894 -64.078185 0.174608 1.421084 -14.009398 -0.000000 -0.000001 -0.000003 0.693185 5.927319 4.507580 -56.059310 34.321257 84.734869 0.000847 97.621298 -0.000863 -25.530825 -30.712683 -22.624249 8.366666 -4.923100 10.757317 21.489647 -17.986473 -18.409738 -0.766879 -49.665027 -32.533933 -0.000001 0.000000 0.000004 -1.055874 2.155755 12.795305 0.748938 -2.534734 32.916895 0.615642 -2.316066 29.767829 0.000000 0.000000 -0.000001 2.935549 -6.805186 51.835026 6.278985 -4.366238 110.400289 0.242726 -1.485373 18.560716 -0.000000 -0.000000 -0.000000 -3.279663 -2.603931 56.702755 5.456753 -4.588171 99.896653 1.689413 -3.590716 50.382238 0.000000 0.000001 -0.000002 -3.882109 -3.366183 64.646552 4.073474 -4.620541 82.792165 2.328068 -4.034029 59.965256 -0.000000 -0.000000 0.000002 -56.284276 8.329232 6.078076 58.730153 3.305575 0.025179 -21.990779 2.584939 -0.821993 4.171684 -0.000000 -0.000004 -0.000000 -0.000000 0.000000 -3.411881 2.403219 4.667721 37.848462 -5.337568 -9.016492 -34.058400 -17.704166 10.072680 -13.897902 -0.000012 0.000001 -0.000000 -0.000000 0.000000 
1.629296 86.129845 25.610228 12.754921 -15.909418 1.298986 6.170535 -2.127274 1.593633 1.909491 -0.819017 -0.010193 1.908663 -0.831328 -0.011122 6.536941 3.268624 2.477611 0.074388 16.721393 10.102530 0.000001 -0.000000 -0.000001 6.088329 -35.240163 19.234030 -72.850791 -8.057749 -41.219621 -0.000007 -38.858046 -0.000007 -128.195534 10.237017 17.290909 4.167469 8.721750 2.820861 17.851128 -4.212010 8.761674 -4.259995 -8.515387 1.356722 -0.000001 0.000002 -0.000002 -0.237005 3.823533 -35.663775 2.894740 5.051519 -59.607778 0.491512 2.350782 -23.615548 0.000001 -0.000002 0.000000 0.288749 5.447704 -52.985008 3.340486 5.286758 -64.551940 0.266769 1.749350 -17.339601 0.000001 0.000001 -0.000001 0.010199 5.826807 -61.679074 4.001736 5.552088 -71.544736 0.558514 2.498344 -25.199676 -0.000001 -0.000002 -0.000001 -6.519452 4.669024 -72.950382 3.288053 5.261604 -63.981544 0.172238 1.411547 -13.913537 -0.000001 0.000002 -0.000002 0.668260 5.787238 5.248610 -55.912642 33.837454 84.000296 0.000302 96.584988 -0.000301 -26.454356 -29.674112 -21.714835 8.262747 -4.827569 10.572723 21.585604 -18.131588 -18.387327 -0.775624 -49.643635 -32.533759 -0.000000 0.000000 0.000002 -1.009016 1.995729 12.671712 0.748628 -2.534275 32.910167 0.615643 -2.316066 29.767826 0.000000 -0.000000 0.000000 3.003265 -6.862548 51.699266 6.286695 -4.363373 110.501744 0.245340 -1.493103 18.660944 0.000000 0.000000 -0.000000 -3.345392 -2.557593 56.682883 5.439043 -4.591209 99.675423 1.689413 -3.590717 50.382238 -0.000000 0.000000 -0.000000 -3.935018 -3.330492 64.573865 4.061724 -4.619038 82.646307 2.317920 -4.028175 59.821044 -0.000000 -0.000001 0.000002 -55.345624 5.675560 3.789568 43.725088 6.334058 2.146206 -25.269461 4.495949 -5.140450 3.489826 0.000000 0.000003 -0.000000 -0.000000 -0.000000 3.416218 0.475235 1.298050 27.367842 -4.834309 -9.135711 -23.380726 -14.977218 15.355134 -16.380732 -0.000330 0.202903 0.000000 0.000000 -0.000000 
1.653368 87.712547 33.422256 13.054202 -16.801782 1.506918 5.679962 -1.690038 1.260202 1.966366 -0.648643 -0.073006 1.965508 -0.664176 -0.075667 7.483887 3.083862 2.877129 0.335781 16.561558 9.475848 0.000000 -0.000001 -0.000001 7.346890 -36.541311 21.355440 -67.930309 -5.152613 -39.185000 0.000030 -47.431603 0.000027 -130.829432 5.782624 20.075507 4.041509 8.524355 2.721309 17.786344 -4.325998 8.806599 -4.214978 -8.337576 1.334214 0.000001 -0.000003 0.000000 -0.217293 3.852277 -35.680495 2.896659 5.052622 -59.629457 0.492146 2.352232 -23.631034 -0.000000 0.000000 -0.000001 0.318630 5.484241 -53.232374 3.336142 5.284707 -64.505031 0.265312 1.744713 -17.292062 0.000002 -0.000002 0.000002 0.074949 5.875160 -61.875708 3.998364 5.550957 -71.509902 0.556911 2.494922 -25.162765 0.000001 0.000002 0.000002 -6.476665 4.730344 -73.182745 3.287222 5.261200 -63.972692 0.172028 1.410666 -13.904593 0.000000 0.000000 -0.000001 0.654493 5.942295 6.002825 -52.847667 33.222587 81.881045 -0.000024 100.451688 0.000006 -27.435331 -31.435314 -21.977100 8.186701 -4.753057 10.472255 21.347188 -17.770322 -18.442800 -0.757503 -49.687929 -32.534114 -0.000000 0.000002 -0.000000 -0.994804 2.027694 12.453104 0.748656 -2.534305 32.910525 0.615642 -2.316066 29.767826 0.000000 0.000000 -0.000000 3.018308 -6.876608 51.631883 6.301003 -4.358004 110.689923 0.250237 -1.507512 18.847965 0.000001 0.000000 -0.000000 -3.460078 -2.478757 56.664216 5.436175 -4.591708 99.639428 1.689413 -3.590717 50.382242 0.000000 0.000000 -0.000002 -3.910198 -3.337970 64.543082 4.054937 -4.618153 82.562043 2.311962 -4.024708 59.736192 -0.000000 0.000000 0.000000 -55.134335 3.929166 4.232687 37.598515 9.429270 2.756413 -28.278870 5.466430 -8.814345 -0.873785 0.000002 -0.000003 0.000002 -0.000000 0.000000 7.414257 -1.076175 -1.982479 23.863265 -4.450964 -9.049742 -12.652093 -12.354141 20.959691 -25.120708 -0.158901 1.755345 0.000000 0.000004 -0.000000 
